<svg xmlns="http://www.w3.org/2000/svg" version="1.1" xmlns:xlink="http://www.w3.org/1999/xlink" xmlns:svgjs="http://svgjs.dev/svgjs" width="100%" height="100%" viewBox="0 0 1000 600"><rect width="1000" height="600" x="0" y="0" fill="#0a0f2c"/><g><circle r="166.66666666666666" cx="326.3361460367838" cy="348.55840198402814" fill="white" transform="matrix(0.7828670322679162,0,0,0.7828670322679164,0,27.125118935398746)"/><path d="M387.8391166776024 423.55840233033797L264.83316802070124 423.55840233033797L264.83316802070124 412.6357836134053L368.9700696298223 281.2667399716047L370.6962600537517 287.2786445514968L266.32126321374386 287.2786445514968L266.32126321374386 273.5584068716441L385.2498310417083 273.5584068716441L385.2498310417083 284.48102558857676L281.32126275961326 415.8500692303773L279.4165009125187 409.8381646504852L387.8391166776024 409.8381646504852L387.8391166776024 423.55840233033797Z " fill="#0a0f2c" transform="matrix(0.7828670322679162,0,0,0.7828670322679164,0,27.125118935398746)"/><path d="M667.8416682426599 391.8314629469141L576.336143491837 391.8314629469141L576.336143491837 383.70600260731766L653.8047694543652 285.9790763430708L655.0889021510862 290.4514005626852L577.4431544372861 290.4514005626852L577.4431544372861 280.2447596456444L665.9154691975784 280.2447596456444L665.9154691975784 288.37021998524085L588.6018247674131 386.0971462494877L587.1848507572382 381.6248220298733L667.8416682426599 381.6248220298733L667.8416682426599 391.8314629469141ZM689.3619610221905 423.5583966434853L689.3619610221905 423.5583966434853Q683.4505225734923 423.5583966434853 678.1147298164276 421.63219759840393Q672.7789370593629 419.7281387722315 668.948679188109 415.89788090097755L668.948679188109 415.89788090097755L674.2180512884468 407.4624574966554Q677.4062428113401 410.473527268277 681.1479398069581 412.15618390535957Q684.8896368025761 413.83884054244226 689.5169425545533 413.83884054244226L689.5169425545533 413.83884054244226Q695.0962777196169 413.83884054244226 699.1700779988695 410.7170696762758Q703.2217380592132 407.61743902901827 706.8970143981043 399.80194175414755L706.8970143981043 399.80194175414755L712.3213680308048 387.5362604785715L713.5833605086169 385.76504296585296L748.011400912084 308.1414354709618L759.170071242211 308.1414354709618L717.2586368475079 401.8831223315919Q713.7383420409798 410.0085826711883 709.5317004482731 414.7908699555284Q705.3029186366576 419.5731572398685 700.3656498199546 421.56577694167703Q695.4062407843426 423.5583966434853 689.3619610221905 423.5583966434853ZM719.0077141413175 384.96799508512964L711.6793016824444 394.22260658908414L673.0889001240887 308.1414354709618L684.8896368025761 308.1414354709618L719.0077141413175 384.96799508512964ZM786.4468209380768 391.8314629469141L775.111028856678 391.8314629469141L775.111028856678 308.1414354709618L785.9597361220792 308.1414354709618L785.9597361220792 331.1008424795762L784.2106588282696 326.7834997923247Q788.1958982318864 317.7060100396421 796.9634249198433 312.5251988149403Q805.7309516078002 307.3443875902385 817.8416513510134 307.3443875902385L817.8416513510134 307.3443875902385Q828.0482922680542 307.3443875902385 835.7752286672888 311.24106611821935Q843.5021650665236 315.1598848651092 847.8859284105021 323.13036367234264Q852.2696917544805 331.1008424795762 852.2696917544805 343.21154222278943L852.2696917544805 343.21154222278943L852.2696917544805 391.8314629469141L840.9560398919907 391.8314629469141L840.9560398919907 344.31855316823857Q840.9560398919907 331.1008424795762 834.3361144382051 324.3259354934277Q827.7161889844194 317.5510285072792 815.7604707735691 317.5510285072792L815.7604707735691 317.5510285072792Q806.8379625532493 317.5510285072792 800.2180370994637 321.13774397053436Q793.620251864587 324.7244594337894 790.033536401332 331.49936641993787Q786.4468209380768 338.2742734060865 786.4468209380768 347.8388479747667L786.4468209380768 347.8388479747667L786.4468209380768 391.8314629469141ZM909.3471761018362 392.6285108276374L909.3471761018362 392.6285108276374Q897.5464394233488 392.6285108276374 891.170056377562 386.25212778185056Q884.7936733317753 379.8757447360637 884.7936733317753 368.2299895899392L884.7936733317753 368.2299895899392L884.7936733317753 289.65435268196177L896.107325194265 289.65435268196177L896.107325194265 367.61006346048765Q896.107325194265 374.93847591936077 899.849022189883 378.92371532297744Q903.61285940441 382.90895472659423 910.6091685796483 382.90895472659423L910.6091685796483 382.90895472659423Q918.1147027897932 382.90895472659423 923.0519716064962 378.5916120393428L923.0519716064962 378.5916120393428L927.0372110101129 386.73921259784817Q923.6940379548568 389.75028236946974 918.9781713272436 391.1893965985535Q914.2844449185393 392.6285108276374 909.3471761018362 392.6285108276374ZM921.6128573774123 317.5510285072792L869.8047451303943 317.5510285072792L869.8047451303943 308.1414354709618L921.6128573774123 308.1414354709618L921.6128573774123 317.5510285072792ZM958.9191262390472 391.8314629469141L947.6054743765573 391.8314629469141L947.6054743765573 308.1414354709618L958.4320414230496 308.1414354709618L958.4320414230496 330.94586094721336L957.3250304776003 326.9606215435966Q960.8231850652196 317.3960469749164 969.1257671560878 312.37021728257736Q977.4062090280471 307.3443875902385 989.6940305225322 307.3443875902385L989.6940305225322 307.3443875902385L989.6940305225322 318.34807638800254Q989.0519641741718 318.34807638800254 988.4098978258113 318.2595155123666Q987.7678314774508 318.1930948556397 987.1257651290904 318.1930948556397L987.1257651290904 318.1930948556397Q973.908054440428 318.1930948556397 966.4025202302831 326.22999431960017Q958.9191262390472 334.2890340024697 958.9191262390472 349.10084045257867L958.9191262390472 349.10084045257867L958.9191262390472 391.8314629469141ZM1022.8379382292784 391.8314629469141L1011.5242863667885 391.8314629469141L1011.5242863667885 308.1414354709618L1022.8379382292784 308.1414354709618L1022.8379382292784 391.8314629469141ZM1017.2586030642149 289.65435268196177L1017.2586030642149 289.65435268196177Q1013.7604484765957 289.65435268196177 1011.3693048344256 287.2632090397917Q1008.9781611922557 284.87206539762167 1008.9781611922557 281.5288923423654L1008.9781611922557 281.5288923423654Q1008.9781611922557 278.1635790682001 1011.3693048344256 275.860996301666Q1013.7604484765957 273.5584135351319 1017.2586030642149 273.5584135351319L1017.2586030642149 273.5584135351319Q1020.778897870743 273.5584135351319 1023.1700415129131 275.77243542603003Q1025.561185155083 278.0085975358372 1025.561185155083 281.35177059109355L1025.561185155083 281.35177059109355Q1025.561185155083 284.87206539762167 1023.23646216964 287.2632090397917Q1020.933879403106 289.65435268196177 1017.2586030642149 289.65435268196177ZM1117.6866360353574 391.8314629469141L1106.8600689888654 391.8314629469141L1106.8600689888654 373.34438015791403L1106.3729841728677 370.3111701673835L1106.3729841728677 339.3812843515355Q1106.3729841728677 328.70969883740617 1100.3951250674427 322.9753821399798Q1094.4172659620174 317.2189252236445 1082.6165292835299 317.2189252236445L1082.6165292835299 317.2189252236445Q1074.4910689439334 317.2189252236445 1067.1626564850603 319.9421721494493Q1059.8342440261874 322.64327885634503 1054.7198534582126 327.1156030759594L1054.7198534582126 327.1156030759594L1049.6276031091465 318.65803945272836Q1056.0039861549335 313.2336858200277 1064.9264943752532 310.28903670513307Q1073.849002595573 307.3443875902385 1083.745680447888 307.3443875902385L1083.745680447888 307.3443875902385Q1099.9966011270808 307.3443875902385 1108.8526886906739 315.403427273108Q1117.6866360353574 323.44032673706846 1117.6866360353574 339.8683691675331L1117.6866360353574 339.8683691675331L1117.6866360353574 391.8314629469141ZM1077.9892235315529 392.6285108276374L1077.9892235315529 392.6285108276374Q1068.6017707141445 392.6285108276374 1061.6497419767238 389.5288801803799Q1054.7198534582126 386.4071093142134 1051.0667173382305 380.91633502478584Q1047.3914409993395 375.40342051644933 1047.3914409993395 368.2299895899392L1047.3914409993395 368.2299895899392Q1047.3914409993395 361.6986250117895 1050.491071646597 356.36283225472476Q1053.6128425127636 351.02703949766004 1060.6977125636377 347.75028709913073Q1067.8047228334208 344.49567491951035 1079.7604410442714 344.49567491951035L1079.7604410442714 344.49567491951035L1108.6091462826748 344.49567491951035L1108.6091462826748 352.9310983238326L1080.070404108997 352.9310983238326Q1067.9597043657836 352.9310983238326 1063.2438377381707 357.248441011084Q1058.5501113294663 361.5436434794265 1058.5501113294663 367.92002652521336L1058.5501113294663 367.92002652521336Q1058.5501113294663 375.0934574517236 1064.12944649453 379.3886599200661Q1069.7087816595936 383.70600260731766 1079.7604410442714 383.70600260731766L1079.7604410442714 383.70600260731766Q1089.3250156129516 383.70600260731766 1096.2549041314628 379.3222392633392Q1103.1847926499743 374.93847591936077 1106.3729841728677 366.63589382849244L1106.3729841728677 366.63589382849244L1108.9191093474005 374.45139110336316Q1105.7309178245073 382.7539731942314 1097.8489998929094 387.69124201093445Q1089.944941742403 392.6285108276374 1077.9892235315529 392.6285108276374Z " fill="white" transform="matrix(0.7828670322679162,0,0,0.7828670322679164,0,27.125118935398746)"/></g></svg>